Coordinates
version=1
nRows=41
nColumns=38
inDegrees=no

Units are S.I. units (second, meters, Newtons, ...)
If the header above contains a line with 'inDegrees', this indicates whether rotational values are in degrees (yes) or radians (no).

endheader
time	pelvis_tilt	pelvis_list	pelvis_rotation	pelvis_tx	pelvis_ty	pelvis_tz	hip_flexion_r	hip_adduction_r	hip_rotation_r	knee_angle_r	ankle_angle_r	subtalar_angle_r	mtp_angle_r	hip_flexion_l	hip_adduction_l	hip_rotation_l	knee_angle_l	ankle_angle_l	subtalar_angle_l	mtp_angle_l	lumbar_extension	lumbar_bending	lumbar_rotation	arm_flex_r	arm_add_r	arm_rot_r	elbow_flex_r	pro_sup_r	wrist_flex_r	wrist_dev_r	arm_flex_l	arm_add_l	arm_rot_l	elbow_flex_l	pro_sup_l	wrist_flex_l	wrist_dev_l
0.47	3.10318	1.09321	-1.40535	0.845585	-0.180696	1.10856	-0.514119	0.0755821	-0.189498	0.384604	-0.147892	0	0	-0.0311884	-0.0953467	0.0436866	0.416952	-0.0982891	0	0	-0.648587	0.143106	0.0733285	0.925408	-0.56615	0.979924	1.14367	0.25528	0	0	0.473395	-0.522037	0.180615	1.10342	0.64823	0	0
0.48	3.09708	1.09712	-1.39757	0.842998	-0.168509	1.10639	-0.519786	0.0758742	-0.194905	0.390184	-0.141753	0	0	-0.0328598	-0.0991552	0.0416045	0.364103	-0.0891199	0	0	-0.642355	0.146609	0.0712943	0.92482	-0.566848	0.980874	1.14462	0.2536	0	0	0.47265	-0.52263	0.181556	1.10367	0.646924	0	0
0.49	3.09111	1.10163	-1.38973	0.840337	-0.156207	1.10406	-0.523599	0.07594	-0.201556	0.396742	-0.135759	0	0	-0.0334092	-0.103173	0.0380221	0.315229	-0.0799028	0	0	-0.635534	0.149819	0.0689484	0.923779	-0.567549	0.981365	1.14593	0.252176	0	0	0.471804	-0.523479	0.182553	1.10404	0.646084	0	0
0.5	3.0853	1.1069	-1.38212	0.837625	-0.14378	1.10155	-0.523599	0.0757081	-0.209237	0.405063	-0.12839	0	0	-0.0333981	-0.107129	0.0349358	0.269227	-0.0717075	0	0	-0.628064	0.152517	0.0664556	0.922168	-0.5682	0.981123	1.14761	0.250943	0	0	0.470642	-0.524527	0.183275	1.10483	0.645207	0	0
0.51	3.07913	1.11168	-1.37401	0.834792	-0.131314	1.09897	-0.523599	0.0754418	-0.216433	0.413542	-0.121386	0	0	-0.0334128	-0.1117	0.0319972	0.228826	-0.0644601	0	0	-0.621127	0.155462	0.0640744	0.920612	-0.569142	0.980644	1.14958	0.250019	0	0	0.469698	-0.525295	0.18373	1.10556	0.644623	0	0
0.52	3.07276	1.11605	-1.3658	0.831878	-0.11874	1.09635	-0.523599	0.0750753	-0.222683	0.421768	-0.115335	0	0	-0.0348209	-0.116133	0.0307648	0.192521	-0.0596737	0	0	-0.614535	0.158445	0.0619022	0.918924	-0.570143	0.97989	1.15148	0.249368	0	0	0.468753	-0.525876	0.18409	1.10624	0.644187	0	0
0.53	3.0662	1.12008	-1.35855	0.829069	-0.10602	1.09375	-0.523599	0.0742824	-0.226867	0.430272	-0.110089	0	0	-0.0369657	-0.120188	0.0285012	0.163642	-0.0575134	0	0	-0.608361	0.160838	0.0605765	0.917202	-0.570779	0.978959	1.15302	0.24884	0	0	0.467436	-0.526461	0.184006	1.1072	0.643193	0	0
0.54	3.0601	1.12352	-1.3528	0.82635	-0.0931663	1.09127	-0.523599	0.0728189	-0.229363	0.439483	-0.105776	0	0	-0.0388429	-0.123599	0.0251819	0.145555	-0.0572495	0	0	-0.603054	0.162438	0.0599419	0.915401	-0.570946	0.977609	1.15411	0.248003	0	0	0.465726	-0.527044	0.183285	1.10853	0.64231	0	0
0.55	3.05543	1.1263	-1.34949	0.823681	-0.0801991	1.08901	-0.523599	0.0701259	-0.230594	0.449244	-0.102006	0	0	-0.0398846	-0.125963	0.0211691	0.140692	-0.0567865	0	0	-0.598858	0.162921	0.0599338	0.913524	-0.570691	0.9758	1.1548	0.247243	0	0	0.463768	-0.527624	0.182073	1.11018	0.642204	0	0
0.56	3.05264	1.12849	-1.34927	0.82111	-0.067108	1.08698	-0.523599	0.0659732	-0.230485	0.459352	-0.100186	0	0	-0.0402705	-0.127224	0.0163637	0.149571	-0.0543552	0	0	-0.595746	0.161952	0.0608948	0.911881	-0.570707	0.975151	1.1559	0.249563	0	0	0.461945	-0.527985	0.180651	1.11172	0.6435	0	0
0.57	3.0523	1.12977	-1.3528	0.818708	-0.0539193	1.08526	-0.523599	0.0602049	-0.229153	0.470208	-0.100285	0	0	-0.0413675	-0.127424	0.010774	0.169392	-0.0522797	0	0	-0.594126	0.15903	0.0630699	0.909162	-0.570534	0.972503	1.15689	0.253338	0	0	0.460762	-0.528202	0.179603	1.11296	0.644735	0	0
0.58	3.03251	1.15818	-1.34915	0.817363	-0.0405841	1.08257	-0.523599	0.0498182	-0.22292	0.503002	-0.10263	0	0	-0.0156755	-0.128645	0.0136453	0.188736	-0.0497744	0	0	-0.577779	0.156926	0.0730803	0.905761	-0.568568	0.969173	1.16066	0.257762	0	0	0.458004	-0.527405	0.177955	1.12063	0.645064	0	0
0.59	3.03429	1.1639	-1.35844	0.815219	-0.026713	1.08091	-0.523599	0.0398764	-0.218555	0.517305	-0.104727	0	0	-0.0179557	-0.125727	0.0169796	0.209123	-0.0507611	0	0	-0.571905	0.150753	0.0769327	0.901851	-0.567472	0.966968	1.16052	0.259084	0	0	0.454282	-0.526751	0.175126	1.12121	0.645409	0	0
0.6	3.03682	1.16808	-1.36967	0.813073	-0.012814	1.07943	-0.523599	0.0287022	-0.215799	0.533676	-0.108015	0	0	-0.0222377	-0.122537	0.0173587	0.230794	-0.0454338	0	0	-0.5684	0.144376	0.0818844	0.898489	-0.566397	0.963688	1.16084	0.260789	0	0	0.451217	-0.526708	0.173026	1.12189	0.646302	0	0
0.61	3.0397	1.1717	-1.38136	0.810747	0.00134374	1.078	-0.523599	0.0167793	-0.214016	0.551203	-0.113014	0	0	-0.026323	-0.119005	0.0131061	0.249879	-0.0347596	0	0	-0.564952	0.13808	0.0869411	0.894243	-0.565745	0.959511	1.16181	0.26288	0	0	0.447508	-0.526768	0.171117	1.1229	0.647728	0	0
0.62	3.01471	1.1809	-1.46378	0.816948	0.0318341	1.07791	-0.523599	-0.0310698	-0.100465	0.542655	-0.116385	0	0	-0.0787421	-0.134087	-0.213367	0.233147	-0.0211318	0	0	-0.511398	0.100305	0.181498	0.818199	-0.57363	0.92192	1.16186	0.308759	0	0	0.386943	-0.48187	0.124551	1.10126	0.697867	0	0
0.63	3.02476	1.17862	-1.47512	0.813465	0.0457558	1.07698	-0.523599	-0.0422874	-0.103288	0.559659	-0.123201	0	0	-0.0858959	-0.127802	-0.213068	0.239482	-0.0242984	0	0	-0.511814	0.0959163	0.180639	0.814641	-0.573871	0.919531	1.16334	0.309892	0	0	0.385186	-0.482107	0.1246	1.10125	0.698371	0	0
0.64	3.04112	1.17687	-1.4911	0.809571	0.0598663	1.07633	-0.523599	-0.0563542	-0.110347	0.580033	-0.138688	0	0	-0.093425	-0.11828	-0.211665	0.242866	-0.035894	0	0	-0.511894	0.0894885	0.17772	0.809432	-0.574186	0.915638	1.16578	0.313227	0	0	0.382983	-0.482316	0.124392	1.10172	0.699488	0	0
0.65	3.05612	1.17774	-1.50725	0.805644	0.074711	1.07574	-0.523599	-0.0712721	-0.115087	0.602533	-0.164754	0	0	-0.0992963	-0.109833	-0.218337	0.247694	-0.0548532	0	0	-0.507963	0.0831829	0.175832	0.800195	-0.573757	0.908204	1.16809	0.319169	0	0	0.377562	-0.481133	0.121789	1.10217	0.702335	0	0
0.66	3.07825	1.17859	-1.52669	0.801228	0.089289	1.07542	-0.523599	-0.0879051	-0.123575	0.629052	-0.195726	0	0	-0.10285	-0.0985662	-0.223707	0.256285	-0.073065	0	0	-0.504523	0.075567	0.170301	0.790349	-0.572627	0.898392	1.16987	0.325501	0	0	0.373855	-0.479824	0.119599	1.10144	0.705218	0	0
0.67	3.09797	1.18061	-1.54399	0.796878	0.104002	1.07514	-0.523599	-0.103463	-0.12906	0.659919	-0.230869	0	0	-0.103707	-0.089195	-0.231678	0.269068	-0.0883054	0	0	-0.499339	0.06886	0.165382	0.780497	-0.571834	0.890739	1.17172	0.333029	0	0	0.369598	-0.47823	0.117469	1.10027	0.707882	0	0
0.68	3.11396	1.18192	-1.5585	0.792915	0.118622	1.07522	-0.523599	-0.116969	-0.12967	0.694229	-0.271526	0	0	-0.105793	-0.0823275	-0.238615	0.282549	-0.103767	0	0	-0.495149	0.0628356	0.16173	0.770664	-0.570407	0.882673	1.17294	0.338509	0	0	0.365457	-0.477269	0.115682	1.09937	0.7109	0	0
0.69	-3.13828	1.16589	-1.5054	0.782223	0.118492	1.07559	-0.523599	-0.096193	-0.211872	0.746437	-0.298511	0	0	-0.078496	-0.0703824	-0.0854987	0.331818	-0.112905	0	0	-0.54338	0.0813641	0.0959114	0.800887	-0.572106	0.877775	1.17851	0.334319	0	0	0.427006	-0.491693	0.151035	1.10069	0.705627	0	0
0.7	-3.11801	1.15691	-1.50934	0.776718	0.130918	1.07705	-0.523599	-0.105549	-0.225653	0.779772	-0.34045	0	0	-0.0879288	-0.0609384	-0.0557529	0.351294	-0.121629	0	0	-0.554708	0.0813826	0.0782076	0.800462	-0.571029	0.874088	1.18244	0.331932	0	0	0.428796	-0.500354	0.15931	1.10494	0.698194	0	0
0.71	-3.09337	1.12883	-1.51955	0.771659	0.143714	1.07993	-0.523599	-0.113633	-0.218653	0.798702	-0.387729	0	0	-0.119491	-0.0536872	-0.0569638	0.373456	-0.133122	0	0	-0.575243	0.0760176	0.0642617	0.801055	-0.571364	0.871253	1.18163	0.331119	0	0	0.428967	-0.507446	0.163574	1.1018	0.692817	0	0
0.72	-3.08436	1.12229	-1.52431	0.767447	0.156041	1.08207	-0.523599	-0.122997	-0.211469	0.835328	-0.438125	0	0	-0.129024	-0.0516824	-0.060554	0.392247	-0.14388	0	0	-0.585217	0.0751774	0.0578391	0.802445	-0.570345	0.870095	1.18179	0.329597	0	0	0.429303	-0.511413	0.167306	1.10448	0.688534	0	0
0.73	-3.0809	1.11519	-1.5243	0.763353	0.167982	1.08434	-0.523599	-0.129089	-0.201773	0.870602	-0.526999	0	0	-0.136894	-0.0538008	-0.0728962	0.417394	-0.15461	0	0	-0.596807	0.0767407	0.0519715	0.806436	-0.569244	0.871317	1.1821	0.32668	0	0	0.428959	-0.51707	0.171395	1.10974	0.680619	0	0
0.74	-3.0797	1.10991	-1.52206	0.759235	0.179657	1.0865	-0.513088	-0.132947	-0.190445	0.906424	-0.605966	0	0	-0.143606	-0.056175	-0.0848445	0.439883	-0.159117	0	0	-0.606289	0.0800923	0.0465182	0.813775	-0.569461	0.879031	1.18163	0.324625	0	0	0.428956	-0.521083	0.174563	1.11302	0.672457	0	0
0.75	-3.07773	1.10735	-1.52178	0.755227	0.191416	1.08851	-0.49056	-0.136632	-0.177428	0.945208	-0.648183	0	0	-0.150113	-0.0565832	-0.097781	0.456598	-0.162106	0	0	-0.61199	0.0825573	0.0436726	0.817934	-0.571057	0.884375	1.18157	0.325759	0	0	0.430443	-0.521118	0.176906	1.11226	0.670433	0	0
0.76	-3.07505	1.10583	-1.52289	0.751338	0.203159	1.09053	-0.465967	-0.139524	-0.163705	0.98171	-0.688532	0	0	-0.15884	-0.0553788	-0.110358	0.467412	-0.163083	0	0	-0.616289	0.0844693	0.041673	0.820079	-0.572277	0.886334	1.18118	0.325384	0	0	0.432049	-0.52019	0.178905	1.11067	0.669424	0	0
0.77	-3.07257	1.10519	-1.52426	0.747681	0.214861	1.09259	-0.440342	-0.140373	-0.148284	1.01604	-0.698132	0	0	-0.169174	-0.0539879	-0.121991	0.475515	-0.161296	0	0	-0.619638	0.0860551	0.0400599	0.820949	-0.572745	0.885817	1.18036	0.323407	0	0	0.4336	-0.519195	0.180652	1.10882	0.669008	0	0
0.78	-3.0714	1.10477	-1.5251	0.744209	0.226705	1.09474	-0.4152	-0.13892	-0.132282	1.04659	-0.698132	0	0	-0.181359	-0.0530318	-0.136127	0.480676	-0.156958	0	0	-0.622157	0.0877842	0.0393802	0.821443	-0.573573	0.886715	1.1797	0.321761	0	0	0.434509	-0.517841	0.182234	1.10668	0.66854	0	0
0.79	-3.0741	1.0974	-1.52139	0.740855	0.238421	1.09764	-0.400019	-0.132929	-0.118084	1.06901	-0.698132	0	0	-0.203997	-0.0551145	-0.152241	0.480561	-0.152744	0	0	-0.631101	0.0920004	0.0389451	0.823972	-0.575075	0.891045	1.17967	0.320988	0	0	0.435803	-0.517696	0.184897	1.10533	0.667748	0	0
0.8	-3.07608	1.09584	-1.51711	0.73746	0.250161	1.10006	-0.378256	-0.126602	-0.105262	1.09169	-0.690302	0	0	-0.220797	-0.056082	-0.161401	0.477843	-0.148392	0	0	-0.634535	0.0962526	0.0369794	0.82519	-0.575718	0.893831	1.17914	0.319898	0	0	0.435869	-0.517456	0.186169	1.1045	0.666616	0	0
0.81	-3.07874	1.09519	-1.51061	0.734037	0.26182	1.10239	-0.355892	-0.118922	-0.0941516	1.11438	-0.647463	0	0	-0.236599	-0.0576567	-0.16617	0.473119	-0.143326	0	0	-0.636765	0.101716	0.0332995	0.826889	-0.575308	0.896907	1.17748	0.316218	0	0	0.435135	-0.518053	0.187085	1.10423	0.663776	0	0
0.82	-3.08126	1.09435	-1.50284	0.730511	0.273382	1.10475	-0.334544	-0.110942	-0.085422	1.13323	-0.605517	0	0	-0.252272	-0.0594537	-0.168111	0.467659	-0.140173	0	0	-0.639162	0.107942	0.0285673	0.828267	-0.574902	0.898852	1.17608	0.311229	0	0	0.434347	-0.518893	0.188062	1.10443	0.661689	0	0
0.83	-3.122	1.16293	-1.56909	0.73593	0.302415	1.10431	-0.221291	-0.11486	0.0387885	1.17183	-0.552871	0	0	-0.24584	-0.0609943	-0.363829	0.423951	-0.158822	0	0	-0.547937	0.0805282	0.108881	0.780223	-0.573193	0.898639	1.16697	0.329069	0	0	0.359451	-0.477368	0.128529	1.09602	0.687958	0	0
0.84	-3.1251	1.1655	-1.56148	0.732602	0.314113	1.10651	-0.197853	-0.104808	0.0473185	1.18176	-0.521912	0	0	-0.257278	-0.0609938	-0.366796	0.420141	-0.160719	0	0	-0.545887	0.0854027	0.107251	0.775977	-0.574358	0.895759	1.16591	0.336126	0	0	0.361352	-0.471456	0.125944	1.09012	0.698093	0	0
0.85	-3.12762	1.16733	-1.55413	0.729489	0.325624	1.1088	-0.176289	-0.0946104	0.0549384	1.18778	-0.478565	0	0	-0.271049	-0.0596737	-0.364295	0.411416	-0.162427	0	0	-0.545549	0.0896417	0.105158	0.772072	-0.575227	0.891662	1.16536	0.342022	0	0	0.363479	-0.467891	0.125093	1.08624	0.706467	0	0
0.86	-3.13183	1.1692	-1.54535	0.726626	0.337086	1.111	-0.1557	-0.0834224	0.0619188	1.18934	-0.436457	0	0	-0.285012	-0.0590655	-0.361738	0.401932	-0.164458	0	0	-0.54563	0.093996	0.103166	0.768194	-0.57561	0.886465	1.16502	0.344356	0	0	0.365058	-0.466305	0.1257	1.08447	0.711555	0	0
0.87	-3.13749	1.17159	-1.53523	0.723877	0.34853	1.11301	-0.135486	-0.0718372	0.0678231	1.18667	-0.39163	0	0	-0.298457	-0.0590518	-0.359354	0.392052	-0.166638	0	0	-0.545198	0.0987023	0.10165	0.764556	-0.576724	0.882435	1.16562	0.346475	0	0	0.366595	-0.465086	0.127157	1.0833	0.714627	0	0
